inDegrees=no
num_controls=7
num_derivatives=13
num_iterations=358
num_multipliers=7
num_parameters=0
num_slacks=7
num_states=26
objective=5.877548
objective_accelerations=0.731579
objective_balance=0.129510
objective_effort=0.479637
objective_height=4.517341
objective_ligament=0.019481
solver_duration=4061.171153
status=Solve_Succeeded
success=true
DataType=double
version=3
OpenSimVersion=4.4-2022-07-23-0e9fedc
endheader
time	/jointset/ground_pelvis/pelvis_tilt/value	/jointset/ground_pelvis/pelvis_tx/value	/jointset/ground_pelvis/pelvis_ty/value	/jointset/hip_l/hip_flexion_l/value	/jointset/hip_l/hip_adduction_l/value	/jointset/hip_l/hip_rotation_l/value	/jointset/back/lumbar_extension/value	/jointset/patellofemoral_l/patellar_flexion_l/value	/jointset/knee_l/knee_flexion_l/value	/jointset/knee_l/knee_adduction_l/value	/jointset/knee_l/knee_rotation_l/value	/jointset/ankle_l/ankle_angle_l/value	/jointset/subtalar_l/subtalar_angle_l/value	/jointset/ground_pelvis/pelvis_tilt/speed	/jointset/ground_pelvis/pelvis_tx/speed	/jointset/ground_pelvis/pelvis_ty/speed	/jointset/hip_l/hip_flexion_l/speed	/jointset/hip_l/hip_adduction_l/speed	/jointset/hip_l/hip_rotation_l/speed	/jointset/back/lumbar_extension/speed	/jointset/patellofemoral_l/patellar_flexion_l/speed	/jointset/knee_l/knee_flexion_l/speed	/jointset/knee_l/knee_adduction_l/speed	/jointset/knee_l/knee_rotation_l/speed	/jointset/ankle_l/ankle_angle_l/speed	/jointset/subtalar_l/subtalar_angle_l/speed	/forceset/tau_hip_flexion_l	/forceset/tau_hip_adduction_l	/forceset/tau_hip_rotation_l	/forceset/tau_knee_flexion_l	/forceset/tau_ankle_angle_l	/forceset/tau_subtalar_angle_l	/forceset/tau_lumbar_extension	lambda_cid13_p0	lambda_cid13_p1	lambda_cid13_p2	lambda_cid13_p3	lambda_cid13_p4	lambda_cid13_p5	lambda_cid14_p0	/jointset/ground_pelvis/pelvis_tilt/accel	/jointset/ground_pelvis/pelvis_tx/accel	/jointset/ground_pelvis/pelvis_ty/accel	/jointset/hip_l/hip_flexion_l/accel	/jointset/hip_l/hip_adduction_l/accel	/jointset/hip_l/hip_rotation_l/accel	/jointset/back/lumbar_extension/accel	/jointset/patellofemoral_l/patellar_flexion_l/accel	/jointset/knee_l/knee_flexion_l/accel	/jointset/knee_l/knee_adduction_l/accel	/jointset/knee_l/knee_rotation_l/accel	/jointset/ankle_l/ankle_angle_l/accel	/jointset/subtalar_l/subtalar_angle_l/accel	gamma_cid13_p0	gamma_cid13_p1	gamma_cid13_p2	gamma_cid13_p3	gamma_cid13_p4	gamma_cid13_p5	gamma_cid14_p0
0.5	-0.4850691505129628	-0.07432438343302061	0.7500180630905805	1.337531189984162	-0.3102505713026304	-0.02939293299295108	-0.3366399042450484	0.7354806652577092	0.7354806652577258	-0.1735376028983114	0.1745208441802027	0.05215331606519968	-0.04712051073995567	-0.8427018643183359	-0.2638378124445034	-0.5474264152191177	2.574916638924425	-0.01792212329056631	0.666393817417389	-0.6171172458417373	1.90042314927922	1.900423149279221	-0.005779657221623654	1.337342117354687e-05	0.2739024350088713	0.01357721375799288	-0.2671511309319095	0.01988467422675963	-0.01974001792371486	-0.1902196814751692	0.1183627240707216	0.04645383987700818	0.2336774436972844	-0.3400142347057724	-22.67690612808944	6.138792016654024	-4.479489821359732	-605.8067273258166	-57.98605238502496	-25.57491695217193	0.7099123500868776	0.7515601124657693	-0.3431049315758509	-1.664723900674149	0.6805691792943495	-0.3575048724295902	1.915059941923663	-1.196773513203127	-1.196773513203129	0.06407238821659844	-0.003720313746479186	-0.1964351857048413	0.6644041292736135	-3.736865125485113e-07	-9.180941077281831e-07	1.84011777861809e-06	1.287738479550399e-07	-4.6966116179708e-07	9.702476006130948e-08	-3.982653684144121e-07
0.51	-0.4934588311167796	-0.0769248837540588	0.7445278365940809	1.363192464866324	-0.3103974953588454	-0.02274678413135026	-0.3427155341548426	0.754421915392387	0.7544219153923426	-0.173595620343502	0.17452128667744	0.05488139477892093	-0.0469534217964382	-0.8351254365949732	-0.2562417014001107	-0.5505042769937446	2.556998798764818	-0.0114858248728363	0.6627613459246251	-0.597948130433306	1.887565059930799	1.887565059930809	-0.005831264841038985	7.14065120835252e-05	0.2716541818593567	0.01981595610458609	-0.2761655922382465	0.02035028447643195	-0.01979398768324411	-0.1913530136633063	0.1177037194323407	0.04688847759224637	0.2405210213302209	-0.831716398704731	-22.67249667161364	6.015778360395618	-4.39305041234387	-610.9695082842213	-57.54740064228884	-24.44526850563945	0.7977868290982365	0.7667422387901875	-0.2730238820082143	-1.906298984217319	0.6215613763418345	-0.3776539872468692	1.926928192901245	-1.369523223451761	-1.369523223450384	-0.04097241810326783	0.009623293871054837	-0.2478921451474077	0.5998532350793044	-3.360802180083161e-07	-8.518191157249869e-07	1.683729087093875e-06	1.08043629506162e-07	-4.196223590462406e-07	1.272227771620356e-07	-3.679268970000901e-07
0.52	-0.5017694916742365	-0.07944880183698022	0.7390102520635148	1.388664364364767	-0.3104807761902169	-0.01613926712458623	-0.3485976547400327	0.7732267453180217	0.7732267453179176	-0.1736543928811025	0.1745221211402592	0.05758521660803251	-0.04672469663990937	-0.8268978550461177	-0.2485213648211512	-0.5528980220324579	2.53704156218068	-0.005193478321926149	0.6586674464499774	-0.5784153809209392	1.873139107470768	1.873139107470787	-0.005930675703760943	9.176653744602226e-05	0.2690510580869358	0.02590445636026456	-0.2851800535445773	0.02081589472610579	-0.01984795744276407	-0.1924863458514451	0.1170447147939592	0.04732311530748601	0.2473645989631638	-1.326936651519524	-22.67135766478685	5.897726449699171	-4.32494760432246	-616.2098925124352	-57.19147199495342	-23.31362008498837	0.8401431151854495	0.7764052193791275	-0.2062815843931488	-2.072603185580371	0.6517788059303812	-0.4497904688063836	1.987786762710718	-1.510346135525298	-1.510346135525304	0.05451173955527564	-0.01125492685597883	-0.2674093102861103	0.6343557110906664	-3.057473183624702e-07	-7.863036511827881e-07	1.562036013062711e-06	9.314092783565796e-08	-3.769899322068928e-07	1.550176703859014e-07	-3.427158174451755e-07
0.53	-0.5099947606593296	-0.0818949986701443	0.7334721445780035	1.413926904047749	-0.3105017011622482	-0.009575134153767928	-0.3542827224311266	0.7918798037233374	0.7918798037232804	-0.1737138808571058	0.1745230488506447	0.06026137184996544	-0.04643566495398126	-0.8180535529872464	-0.2407067338008912	-0.5546077905662967	2.51514540035218	0.0009815685625992317	0.6540775478637862	-0.5585550209418829	1.857225857093028	1.857225857093047	-0.005964989139373465	9.660761475977106e-05	0.2661241434629576	0.0318733933828549	-0.2940260512922729	0.02112224668836397	-0.01987335345289675	-0.1936124517302522	0.1162972457330242	0.04756554429958978	0.2540018871318633	-1.851343084881412	-22.58134159899573	5.765172233179243	-4.161678454372666	-621.3454897310774	-56.70199563632977	-22.18105188534106	0.9218941700506496	0.7856993075866902	-0.1360427317896477	-2.296314697850129	0.5962158737834102	-0.4761260368003374	1.991631068925297	-1.668756069063715	-1.668756069063764	-0.03218875950966034	0.006446469007900958	-0.3137101143791017	0.573833770434332	-2.786300323420278e-07	-7.164532627091246e-07	1.455075464345122e-06	8.172612014473857e-08	-3.385311166712544e-07	1.804107852759946e-07	-3.189847032626461e-07
0.54	-0.5181285225400726	-0.08426270774025829	0.7279203957583718	1.438960843709173	-0.3104617060166201	-0.003059407465466382	-0.3597678924317455	0.8103663413088423	0.8103663413088326	-0.1737736691423432	0.1745240435406	0.06290658243047349	-0.04608780968330903	-0.8085964341758661	-0.2328238122111398	-0.5556262888565529	2.491321557869069	0.006990545209916232	0.6489861899466004	-0.5384358428259374	1.839834943508669	1.839834943508688	-0.005990737550591604	0.0001051624513873741	0.2628621258019615	0.03766917330908982	-0.3028720490399613	0.02142859865062337	-0.01989874946302811	-0.1947385576090603	0.1155497766720882	0.04780797329169459	0.2606391753005704	-2.380928820104811	-22.49373200825811	5.636787254310648	-4.007468190631957	-626.5793974079943	-56.28853207662095	-21.04907081921589	0.9627064656872346	0.7900633332774194	-0.0680275356765892	-2.45813931650259	0.6185647584887057	-0.5500823350053253	2.039550390088615	-1.80587877684937	-1.805878776849364	0.05622474443415476	-0.0105121749932126	-0.3344299176897036	0.599724291819581	-2.550704465028832e-07	-6.418067881836275e-07	1.364414730868085e-06	7.41702589844235e-08	-3.046899136418478e-07	2.03146613498935e-07	-2.968909975772235e-07
0.55	-0.5261647960095606	-0.0865513239015758	0.7223619161777728	1.463747238273581	-0.3103623181064796	0.003402942448172101	-0.3650506537778639	0.8286718110389805	0.8286718110389261	-0.1738333219100138	0.174525047605474	0.06551763539194594	-0.04568270989373436	-0.7985630108662595	-0.2248949006968368	-0.5559526753036789	2.465649960225672	0.01285599054427976	0.6434056656899582	-0.5180891914483813	1.821022591862609	1.821022591862602	-0.005937352430810462	9.618864884747803e-05	0.2592980414958039	0.04331826929041462	-0.3114706576937698	0.02153412109040626	-0.01990260201823647	-0.1959268563241117	0.1148861113253056	0.04787735580547841	0.2670232797821397	-2.880567609009266	-22.33650022000462	5.497631108330729	-3.829702917486984	-631.6743520949724	-55.78177823098977	-19.91938532938508	1.03791497546879	0.7949969735875803	0.002541348482354613	-2.667818273927905	0.5657675110119267	-0.574009676837815	2.036307754018044	-1.954317988954844	-1.954317988958551	-0.01979751433374583	0.003699780995912162	-0.3749590944370003	0.5425664023856938	-2.31993866604153e-07	-5.701154783665958e-07	1.273093353566118e-06	6.727450975045198e-08	-2.727237651417523e-07	2.215884013715264e-07	-2.747535902996204e-07
